<?xml version="1.0" encoding="UTF-8" standalone="no"?>
<!-- Created with Inkscape (http://www.inkscape.org/) -->

<svg
   xmlns:dc="http://purl.org/dc/elements/1.1/"
   xmlns:cc="http://creativecommons.org/ns#"
   xmlns:rdf="http://www.w3.org/1999/02/22-rdf-syntax-ns#"
   xmlns:svg="http://www.w3.org/2000/svg"
   xmlns="http://www.w3.org/2000/svg"
   xmlns:sodipodi="http://sodipodi.sourceforge.net/DTD/sodipodi-0.dtd"
   xmlns:inkscape="http://www.inkscape.org/namespaces/inkscape"
   width="500"
   height="200"
   viewBox="0 0 132.29166 52.916668"
   version="1.1"
   id="svg8"
   inkscape:version="0.92.5 (2060ec1f9f, 2020-04-08)"
   sodipodi:docname="gx4000.svg">
  <defs
     id="defs2" />
  <sodipodi:namedview
     id="base"
     pagecolor="#ffffff"
     bordercolor="#666666"
     borderopacity="1.0"
     inkscape:pageopacity="0.0"
     inkscape:pageshadow="2"
     inkscape:zoom="1.2879494"
     inkscape:cx="174.37484"
     inkscape:cy="79.040991"
     inkscape:document-units="mm"
     inkscape:current-layer="layer1"
     showgrid="false"
     units="px"
     inkscape:pagecheckerboard="true"
     inkscape:window-width="1366"
     inkscape:window-height="739"
     inkscape:window-x="0"
     inkscape:window-y="0"
     inkscape:window-maximized="1"
     inkscape:snap-others="false"
     inkscape:object-nodes="false" />
  <metadata
     id="metadata5">
    <rdf:RDF>
      <cc:Work
         rdf:about="">
        <dc:format>image/svg+xml</dc:format>
        <dc:type
           rdf:resource="http://purl.org/dc/dcmitype/StillImage" />
        <dc:title></dc:title>
      </cc:Work>
    </rdf:RDF>
  </metadata>
  <g
     inkscape:label="Layer 1"
     inkscape:groupmode="layer"
     id="layer1"
     transform="translate(0,-244.08332)">
    <rect
       style="opacity:0.98000004;fill:#ffffff;fill-opacity:1;stroke:none;stroke-width:0.54393023;stroke-linecap:round;stroke-linejoin:bevel;stroke-miterlimit:4;stroke-dasharray:none;stroke-opacity:1"
       id="rect1343"
       width="15.895813"
       height="29.643541"
       x="0.61483574"
       y="256.29556" />
    <path
       inkscape:connector-curvature="0"
       id="path1197"
       style="fill:#ffffff;fill-opacity:1;fill-rule:nonzero;stroke:none;stroke-width:0.01557669"
       d="m 123.12118,281.02612 v -20.11451 h 0.0227 c 1.46296,0 1.64209,1.00516 1.64209,2.4577 v 15.1993 c 0,1.45253 -0.17913,2.45751 -1.64209,2.45751 z m -6.65888,4.92546 h 11.27224 c 2.19149,0 3.71052,-1.49816 3.71052,-3.66034 v -22.64477 c 0,-2.16188 -1.51903,-3.6602 -3.71052,-3.6602 H 116.4623 v 29.96531" />
    <path
       inkscape:connector-curvature="0"
       id="path1199"
       style="fill:#ffffff;fill-opacity:1;fill-rule:nonzero;stroke:none;stroke-width:0.01557669"
       d="m 91.490998,260.91161 h 0.02295 c 1.462651,0 1.641629,1.00516 1.641629,2.4577 v 2.71376 c 0,1.45269 -0.20405,2.48013 -1.664525,2.48013 z m 4.613512,10.47346 c 2.191017,0 3.710056,-1.49833 3.710056,-3.66037 v -8.07823 c 0,-2.16188 -1.519039,-3.6602 -3.710056,-3.6602 H 84.831818 v 15.3988 14.56651 h 6.65918 V 274.23 h 0.02295 c 1.462651,0 1.641629,1.00501 1.641629,2.45769 v 9.26389 h 6.659036 v -10.90615 c 0,-2.16204 -1.51905,-3.66036 -3.710055,-3.66036" />
    <path
       inkscape:connector-curvature="0"
       id="path1201"
       style="fill:#ffffff;fill-opacity:1;fill-rule:nonzero;stroke:none;stroke-width:0.01557669"
       d="m 66.970794,285.95158 c 2.19149,0 3.710376,-1.49816 3.710376,-3.66034 v -9.7616 c -0.02479,-2.9404 -8.323718,-6.24283 -8.323718,-6.24283 v -4.99403 c 0,-0.45998 0.372597,-0.83258 0.832421,-0.83258 0.459983,0 0.832421,0.3726 0.832421,0.83258 l 0.0066,4.99403 h 6.652492 v -6.74438 c 0,-2.16206 -1.518885,-3.66037 -3.710376,-3.66037 h -7.561854 c -2.191333,0 -3.710364,1.49831 -3.710364,3.66037 v 8.09708 c 0.0269,2.93853 8.323718,6.24281 8.323718,6.24281 v 6.65935 c 0,0.45952 -0.372438,0.83212 -0.832421,0.83212 -0.459824,0 -0.83242,-0.3726 -0.83242,-0.83212 l -0.0066,-6.65935 h -6.652796 v 8.40892 c 0,2.16218 1.51903,3.66034 3.710363,3.66034 h 7.561854" />
    <path
       inkscape:connector-curvature="0"
       id="path1203"
       style="fill:#ffffff;fill-opacity:1;fill-rule:nonzero;stroke:none;stroke-width:0.01557669"
       d="m 24.985769,275.54686 0.955125,-10.82068 0.955283,10.82068 z m -2.790596,-19.56059 -3.953793,29.96531 h 5.826666 l 0.514068,-5.82641 h 2.717468 l 0.51416,5.82641 h 5.826837 l -3.953832,-29.96531 h -0.20827 -7.075192 -0.208112" />
    <path
       inkscape:connector-curvature="0"
       id="path1205"
       style="fill:#ffffff;fill-opacity:1;fill-rule:nonzero;stroke:none;stroke-width:0.01557669"
       d="m 106.97501,275.54686 0.95533,-10.82068 0.95516,10.82068 z m -2.7904,-19.56059 -3.95383,29.96531 h 5.82677 l 0.51403,-5.82641 h 2.71735 l 0.51418,5.82641 h 5.82693 l -3.95445,-29.96531 h -0.20764 -7.07508 -0.20826" />
    <path
       inkscape:connector-curvature="0"
       id="path1207"
       style="fill:#ffffff;fill-opacity:1;fill-rule:nonzero;stroke:none;stroke-width:0.01557669"
       d="m 74.427049,260.98047 v 24.97111 H 81.0864 v -24.97111 h 2.912997 v -4.9942 H 71.097525 v 4.9942 h 3.329524" />
    <path
       inkscape:connector-curvature="0"
       id="path1209"
       style="fill:#ffffff;fill-opacity:1;fill-rule:nonzero;stroke:none;stroke-width:0.01557669"
       d="m 48.623173,270.96901 v 14.98257 h 5.82693 v -29.96531 h -8.323875 l -1.664841,11.9861 -1.664828,-11.9861 h -8.323717 v 29.96531 h 5.826613 v -14.98257 l 2.080894,14.98257 h 4.161931 l 2.080893,-14.98257" />
    <path
       style="fill:#0a0903;stroke-width:0.0997046"
       d="M 8.7681709,286.56479 H 0.59239312 V 271.26013 255.95547 H 8.7681709 16.943948 v 15.30466 15.30466 z m 6.0322941,-4.45622 c -0.08216,-0.1173 -0.351366,-0.29041 -0.598227,-0.38469 -0.246861,-0.0943 -0.448837,-0.20408 -0.448837,-0.24403 0,-0.0399 0.205709,-0.15117 0.457134,-0.24719 0.270582,-0.10335 0.420546,-0.21116 0.367481,-0.26423 -0.05045,-0.0504 -1.482146,-0.0781 -3.273789,-0.0634 l -3.1841367,0.0263 -0.029985,0.69514 -0.029985,0.69514 0.2449075,-0.23008 0.2449085,-0.23007 2.6765107,0.0334 c 2.877373,0.036 3.240756,0.0967 3.305847,0.55209 0.08625,0.60346 -1.426337,0.76975 -6.312497,0.69398 -4.2961128,-0.0666 -5.1372344,-0.18494 -5.2156738,-0.73365 -0.046179,-0.32304 0.3190553,-0.51019 1.6498716,-0.84536 0.6450912,-0.16249 1.2155155,-0.33719 1.2676109,-0.38826 0.058554,-0.0573 -0.502933,-0.0928 -1.4706423,-0.0928 -0.8609485,0 -1.5653627,0.0288 -1.5653627,0.0638 0,0.0351 0.076447,0.11969 0.1698915,0.18802 0.1555778,0.11376 0.1429798,0.15487 -0.149557,0.48805 -0.175697,0.20012 -0.3194473,0.44856 -0.3194473,0.55213 0,0.70934 1.6926393,1.4802 3.9350285,1.79209 0.9850442,0.13701 3.6025116,0.13712 4.6074256,2e-4 1.725095,-0.23503 3.223506,-0.75641 3.619051,-1.25927 0.240501,-0.30574 0.253931,-0.50985 0.05248,-0.79747 z m -0.0071,-13.96878 c -0.343329,-0.49018 -1.83687,-1.01842 -3.430253,-1.21322 -1.230879,-0.15048 -4.0042009,-0.12634 -5.32144,0.0464 -1.8124573,0.23759 -3.0325861,0.70077 -3.3524913,1.27265 -0.1358948,0.24294 -0.1362212,0.30262 -0.00295,0.54688 0.2150017,0.39417 1.273881,0.89035 2.4467919,1.14654 0.8759319,0.19134 1.2986702,0.21713 3.5853355,0.21883 2.0742779,0.002 2.7782829,-0.0336 3.5228989,-0.17524 1.23083,-0.23433 1.988916,-0.52742 2.384599,-0.9219 0.359499,-0.35842 0.401152,-0.58735 0.167542,-0.92088 z m -0.385066,0.67193 c -0.301453,0.25018 -1.602428,0.32533 -5.5902693,0.32289 -4.1320585,-0.002 -5.4412472,-0.0825 -5.7071669,-0.34837 -0.2289142,-0.22891 -0.064877,-0.54447 0.3537784,-0.68057 0.5000761,-0.16258 8.5617138,-0.2413 9.7555408,-0.0953 1.140993,0.13957 1.606877,0.45378 1.188117,0.80133 z m 0.291692,-5.02067 c -0.688089,-0.74246 -2.379276,-1.14585 -5.136793,-1.22524 -2.6796871,-0.0772 -4.6888683,0.16744 -5.9530217,0.72473 -2.0010049,0.88212 -0.9272192,2.00653 2.3804633,2.49269 1.4153184,0.20802 5.1716304,0.14947 6.3640554,-0.0992 1.182899,-0.24668 1.971615,-0.54573 2.296743,-0.87087 0.363996,-0.364 0.378354,-0.66624 0.04855,-1.02211 z m -0.288535,0.73076 c -0.331129,0.2748 -1.466878,0.34337 -5.6432767,0.34072 -4.3159283,-0.003 -5.3671799,-0.0734 -5.6754084,-0.38168 -0.2144044,-0.2144 -0.042009,-0.46067 0.4506451,-0.64375 0.5102309,-0.18962 8.018517,-0.27677 9.544261,-0.11083 1.268224,0.13796 1.759974,0.43346 1.323782,0.79548 z m 0.301737,-5.00381 c -0.734027,-0.79204 -2.933797,-1.2693 -5.8453094,-1.26823 -3.2796342,10e-4 -5.7392711,0.57931 -6.1525833,1.44604 -0.1474548,0.30921 -0.1469415,0.35488 0.00657,0.58924 0.2155933,0.32904 0.5114991,0.51822 1.1727511,0.74981 2.0352986,0.7128 5.9843066,0.8497 8.6798466,0.30089 1.147031,-0.23352 1.792265,-0.49294 2.128535,-0.85578 0.310152,-0.33467 0.313317,-0.63484 0.01009,-0.96197 z m -0.298028,0.71343 c -0.349378,0.28994 -1.350601,0.35232 -5.5971353,0.34862 -4.3724591,-0.003 -5.4127966,-0.074 -5.725261,-0.3865 -0.2145756,-0.21457 -0.041703,-0.46108 0.450645,-0.64261 0.307042,-0.11321 1.2328107,-0.15183 4.3901702,-0.1831 4.1748801,-0.0414 5.9610841,0.0507 6.3857321,0.32888 0.261481,0.17133 0.296733,0.36798 0.09585,0.53471 z m 0.368066,18.45669 c -0.03681,0 -0.147606,0.073 -0.246214,0.16226 -0.166642,0.15081 -0.327453,0.12529 -2.280128,-0.3619 -1.282878,-0.32007 -2.08669,-0.56661 -2.064495,-0.63318 0.0372,-0.11163 3.499553,-0.94458 3.972552,-0.9557 0.144088,-0.003 0.317423,0.0606 0.385188,0.1423 0.220753,0.26599 0.300026,0.0539 0.300026,-0.80242 0,-0.85276 -0.09006,-1.02927 -0.346346,-0.67878 -0.08152,0.11151 -1.059641,0.37801 -3.101834,0.84518 -1.6405225,0.37529 -3.0580802,0.68338 -3.1501295,0.68466 -0.092052,0.001 -1.2548769,-0.26612 -2.5840636,-0.5942 -1.6915436,-0.41752 -2.4812328,-0.65713 -2.6317632,-0.79854 -0.2774207,-0.26063 -0.3498256,-0.17603 -0.3498256,0.40874 0,0.51638 0.1059676,0.67067 0.300025,0.43684 0.067767,-0.0816 0.1738,-0.14932 0.2356332,-0.15035 0.3331763,-0.006 3.6510114,0.85215 3.6228633,0.93659 -0.033045,0.0992 -3.1155425,0.84794 -3.5231591,0.85586 -0.1166697,0.002 -0.2675718,-0.0627 -0.3353374,-0.14434 -0.2177293,-0.26235 -0.300025,-0.0575 -0.300025,0.7467 0,0.83974 0.10131,1.03198 0.3766784,0.71474 0.1329553,-0.15316 0.8128682,-0.33773 3.0132783,-0.81797 l 2.8415815,-0.62017 2.7402317,0.70659 c 1.674073,0.43167 2.783942,0.76635 2.852573,0.86021 0.221111,0.30239 0.339619,0.16464 0.339619,-0.39474 0,-0.30161 -0.03012,-0.54838 -0.06693,-0.54838 z m -0.07196,-7.17873 c -0.07639,0 -0.165145,0.0684 -0.197233,0.15204 -0.04959,0.12922 -0.301754,0.14792 -1.680719,0.12463 l -1.622377,-0.0274 -0.04985,-0.34896 c -0.03165,-0.22157 -0.104449,-0.34897 -0.199409,-0.34897 -0.09495,0 -0.167758,0.1274 -0.19941,0.34897 l -0.04985,0.34896 -1.2445778,0.0282 c -0.6845171,0.0155 -1.2828233,0.0664 -1.3295698,0.11321 -0.1136826,0.11367 0.1744482,0.65515 0.4521137,0.84963 0.164545,0.11525 0.4749979,0.15561 1.1970247,0.15561 h 0.9748612 v 0.59234 c 0,0.32579 -0.03515,0.61407 -0.07811,0.64062 -0.04296,0.0266 -1.7971305,-0.4899 -3.8981457,-1.14767 -2.1010141,-0.65778 -3.8829775,-1.1718 -3.9599176,-1.14228 -0.1797222,0.069 -0.1872717,0.79384 -0.00975,0.94112 0.071552,0.0594 1.9628347,0.49387 4.2028566,0.96552 3.2404977,0.68231 4.0897137,0.83083 4.1556837,0.72681 0.0456,-0.072 0.0836,-0.45603 0.08444,-0.85361 l 0.0015,-0.72285 h 1.583066 c 1.285534,0 1.606393,0.0281 1.707187,0.14956 0.237938,0.2867 0.299113,0.14395 0.299113,-0.69793 0,-0.65793 -0.03106,-0.84749 -0.138889,-0.84749 z"
       id="path1341"
       inkscape:connector-curvature="0" />
  </g>
</svg>
