<?xml version="1.0" encoding="UTF-8" standalone="no"?>
<!-- Created with Inkscape (http://www.inkscape.org/) -->

<svg
   xmlns:dc="http://purl.org/dc/elements/1.1/"
   xmlns:cc="http://creativecommons.org/ns#"
   xmlns:rdf="http://www.w3.org/1999/02/22-rdf-syntax-ns#"
   xmlns:svg="http://www.w3.org/2000/svg"
   xmlns="http://www.w3.org/2000/svg"
   xmlns:sodipodi="http://sodipodi.sourceforge.net/DTD/sodipodi-0.dtd"
   xmlns:inkscape="http://www.inkscape.org/namespaces/inkscape"
   width="500"
   height="200"
   viewBox="0 0 500 200"
   version="1.1"
   id="svg8"
   sodipodi:docname="template.svg"
   inkscape:version="0.92.5 (2060ec1f9f, 2020-04-08)">
  <defs
     id="defs2" />
  <sodipodi:namedview
     id="base"
     pagecolor="#ffffff"
     bordercolor="#666666"
     borderopacity="1.0"
     inkscape:pageopacity="0.0"
     inkscape:pageshadow="2"
     inkscape:zoom="0.96960477"
     inkscape:cx="194.35899"
     inkscape:cy="130.51171"
     inkscape:document-units="mm"
     inkscape:current-layer="g462"
     showgrid="false"
     units="px"
     inkscape:pagecheckerboard="true"
     inkscape:window-width="1366"
     inkscape:window-height="739"
     inkscape:window-x="0"
     inkscape:window-y="0"
     inkscape:window-maximized="1" />
  <metadata
     id="metadata5">
    <rdf:RDF>
      <cc:Work
         rdf:about="">
        <dc:format>image/svg+xml</dc:format>
        <dc:type
           rdf:resource="http://purl.org/dc/dcmitype/StillImage" />
        <dc:title />
      </cc:Work>
    </rdf:RDF>
  </metadata>
  <g
     inkscape:label="Layer 1"
     inkscape:groupmode="layer"
     id="layer1"
     transform="translate(1.5369011,-241.16176)">
    <g
       id="g465">
      <g
         id="g106">
        <g
           id="g462"
           style="fill:#006400">
          <path
             inkscape:connector-curvature="0"
             id="path52"
             d="m 248.79933,379.71695 c -1.2375,-0.18273 -2.25,-0.83291 -2.25,-1.44485 0,-1.08362 6.62575,-13.12624 25.67525,-46.66605 5.12861,-9.02976 9.32475,-17.03222 9.32475,-17.78324 0,-2.58057 -15.15066,-30.06176 -17.38484,-31.53369 -0.61334,-0.40408 -5.95266,-0.74157 -11.86516,-0.75 -7.96632,-0.0113 -10.73029,-0.33899 -10.67388,-1.26531 0.0419,-0.6875 4.22875,-8.45 9.30419,-17.25 l 9.22807,-16 8.15068,-0.28971 c 7.02495,-0.2497 8.81297,0.0487 12.94581,2.1607 7.15034,3.65399 10.23629,7.5009 20.55933,25.62901 5.16775,9.075 11.94739,20.90342 15.06586,26.28538 3.11847,5.38196 5.66994,10.9236 5.66994,12.31476 0,1.39115 -3.08015,7.78773 -6.84478,14.21461 -3.76463,6.42689 -8.88053,15.28525 -11.36866,19.68525 -14.32785,25.33728 -18.12002,31.68939 -19.14626,32.07116 -1.42345,0.52954 -33.32387,1.07478 -36.3903,0.62198 z m -33.94617,-1.29797 c -6.9419,-2.00786 -12.52356,-9.14583 -26.81102,-34.28655 -7.4676,-13.14026 -14.23341,-24.82789 -15.03513,-25.97251 -2.64564,-3.77718 -1.57822,-7.09177 7.15511,-22.21833 4.73703,-8.20478 11.76101,-20.54278 15.60884,-27.41778 3.84784,-6.875 8.34399,-14.6375 9.99146,-17.25 l 2.9954,-4.75 h 19.89576 c 16.21233,0 19.89575,0.2545 19.89575,1.37468 0,0.75607 -7.70545,14.80659 -17.12321,31.22337 -9.41777,16.41678 -17.57159,30.83278 -18.11961,32.03555 -0.83053,1.82281 0.12619,4.241 5.74728,14.52662 3.70902,6.78688 7.83574,13.80228 9.1705,15.58978 l 2.42683,3.25 h 10.89008 c 5.98955,0 11.11716,0.3674 11.39469,0.81645 0.43351,0.70143 -12.68773,25.40736 -16.95981,31.93355 -1.33919,2.04581 -2.21946,2.24182 -9.6998,2.15981 -4.52482,-0.0496 -9.66523,-0.50619 -11.42312,-1.01464 z m 101.36569,-0.67178 c -2.92058,-1.77825 -9.66952,-12.15067 -9.66952,-14.86105 0,-0.84177 3.87682,-8.35516 8.61515,-16.69642 10.9672,-19.3064 13.25976,-22.86126 14.32064,-22.2056 0.47312,0.2924 3.89105,5.82095 7.59541,12.28566 3.70436,6.46471 10.05026,17.52884 14.102,24.58696 4.05174,7.05812 7.3668,13.60562 7.3668,14.55 0,3.75959 -1.83499,4.11787 -20.95,4.09045 -15.76454,-0.0226 -18.97502,-0.28539 -21.38048,-1.75 z M 155.58034,286.80454 c -4.62621,-8.1294 -11.02573,-19.32245 -14.22115,-24.87344 -6.05224,-10.51376 -6.60373,-12.21342 -4.60986,-14.20729 1.49424,-1.49424 36.38997,-1.68659 40.24261,-0.22182 2.95372,1.123 10.55739,12.24532 10.55739,15.44289 0,2.77138 -20.34934,37.99567 -22.16067,38.35966 -0.87881,0.1766 -4.51711,-5.20203 -9.80832,-14.5 z"
             style="fill:#5ce000" />
          <path
             id="path52-3"
             style="fill:#00c000"
             d="m 208.75855,246.52381 -2.9961,4.75 c -1.64747,2.6125 -6.14435,10.375 -9.99219,17.25 -3.84783,6.875 -10.87039,19.21319 -15.60742,27.41797 -8.73333,15.12656 -9.80189,18.44157 -7.15625,22.21875 0.80172,1.14462 7.56756,12.8324 15.03516,25.97266 14.28746,25.14072 19.86865,32.27925 26.81054,34.28711 1.75791,0.50845 6.89901,0.96407 11.42383,1.01367 7.48034,0.082 8.36003,-0.11435 9.69922,-2.16016 4.27208,-6.52619 17.39445,-31.23216 16.96094,-31.93359 -0.27753,-0.44905 -5.40498,-0.81641 -11.39453,-0.81641 h -10.89063 l -2.42773,-3.25 c -1.33476,-1.7875 -5.4609,-8.80296 -9.16992,-15.58984 -5.62109,-10.28562 -6.57663,-12.70258 -5.7461,-14.52539 0.54802,-1.20277 8.70137,-15.61838 18.11914,-32.03516 9.41776,-16.41678 17.12305,-30.46854 17.12305,-31.22461 0,-1.12018 -3.68415,-1.375 -19.89648,-1.375 z m 63.72265,0.14258 c -0.54543,-0.008 -1.13142,-0.006 -1.76953,0.004 -0.72927,0.0116 -1.52618,0.0332 -2.4043,0.0644 l -8.15039,0.28906 -9.22656,16 c -5.07544,8.8 -9.26279,16.5625 -9.30469,17.25 -0.0564,0.92632 2.70751,1.25433 10.67383,1.26563 5.9125,0.008 11.25193,0.34592 11.86523,0.75 2.2342,1.47193 17.38477,28.95263 17.38477,31.5332 0,0.75102 -4.19561,8.7554 -9.32422,17.78516 -19.0495,33.53981 -25.67578,45.58239 -25.67578,46.66601 0,0.61194 1.0125,1.26063 2.25,1.44336 3.06643,0.4528 34.96718,-0.0916 36.39063,-0.62109 1.02624,-0.38177 4.81863,-6.73499 19.14648,-32.07227 2.48813,-4.4 7.60256,-13.2567 11.36719,-19.68359 3.76463,-6.42688 6.8457,-12.82369 6.8457,-14.21484 0,-1.39116 -2.55145,-6.9325 -5.66992,-12.31446 -3.11847,-5.38196 -9.89866,-17.21211 -15.06641,-26.28711 -10.32304,-18.12811 -13.40825,-21.97491 -20.55859,-25.6289 -3.16421,-1.617 -4.9554,-2.17007 -8.77344,-2.22852 z m 51,85.10742 c -0.003,0.005 -0.007,0.0107 -0.01,0.0156 -1e-4,0.001 9e-5,0.003 0,0.004 0.003,-0.007 0.007,-0.0129 0.01,-0.0195 z"
             inkscape:connector-curvature="0" />
          <g
             aria-label="GameMaker Loader"
             transform="matrix(1.1584209,0,0,1.1584209,41.502283,235.45477)"
             style="font-style:normal;font-weight:normal;font-size:40px;line-height:125%;font-family:sans-serif;letter-spacing:0px;word-spacing:0px;fill:#00ac00;fill-opacity:1;stroke:none;stroke-width:1px;stroke-linecap:butt;stroke-linejoin:miter;stroke-opacity:1"
             id="flowRoot130">
            <path
               d="m 16.83125,149.3877 v 4.8 h 6.4 q -0.04,1.32 -0.6,2.6 -0.56,1.24 -1.52,2.2 -0.92,0.96 -2.16,1.52 -1.24,0.52 -2.6,0.52 -2.04,0 -3.68,-0.88 -1.6,-0.92 -2.68,-2.44 -1.08,-1.56 -1.64,-3.44 -0.52,-1.88 -0.52,-3.8 0,-1.92 0.52,-3.84 0.56,-1.92 1.64,-3.48 1.08,-1.6 2.68,-2.52 1.6,-0.96 3.64,-0.96 2.28,0 4.12,1.36 1.84,1.32 2.76,3.44 l 5.2,-2.8 q -1.72,-3.44 -4.88,-5.32 -3.16,-1.88 -7.04,-1.88 -3.28,0 -6.04,1.28 -2.72,1.24 -4.68,3.48 -1.92,2.2 -2.96,5.12 -1.04,2.88 -1.04,6.12 0,3.12 1,6 1,2.84 2.88,5.04 1.92,2.2 4.6,3.48 2.68,1.24 5.88,1.24 3.4,0 6,-1.24 2.6,-1.28 4.32,-3.52 1.72,-2.28 2.56,-5.16 0.84,-2.88 0.84,-6.16 v -0.76 z"
               style="font-style:normal;font-variant:normal;font-weight:normal;font-stretch:normal;font-family:Futura-Heavy;-inkscape-font-specification:Futura-Heavy;fill:#00ac00"
               id="path138" />
            <path
               d="m 51.151187,145.7877 h -5.52 v 1.84 q -1,-1.2 -2.48,-1.84 -1.44,-0.64 -3,-0.64 -2.04,0 -3.72,0.88 -1.68,0.84 -2.84,2.32 -1.16,1.48 -1.8,3.36 -0.6,1.84 -0.6,3.8 0,2 0.6,3.92 0.6,1.88 1.76,3.4 1.2,1.52 2.88,2.4 1.72,0.84 3.8,0.84 1.56,0 3,-0.64 1.44,-0.64 2.32,-1.8 h 0.08 v 1.8 h 5.52 z m -9.64,15.32 q -2.04,0 -3.36,-1.68 -1.28,-1.72 -1.28,-3.84 0,-2.12 1.28,-3.8 1.32,-1.68 3.36,-1.68 2.04,0 3.36,1.68 1.32,1.68 1.32,3.8 0,2.12 -1.32,3.84 -1.32,1.68 -3.36,1.68 z"
               style="font-style:normal;font-variant:normal;font-weight:normal;font-stretch:normal;font-family:Futura-Heavy;-inkscape-font-specification:Futura-Heavy;fill:#00ac00"
               id="path140" />
            <path
               d="m 60.791132,145.7877 h -5.6 v 19.64 h 5.6 v -9.64 q 0,-1.32 0.08,-2.32 0.08,-1 0.36,-1.88 0.28,-0.88 0.88,-1.4 0.64,-0.56 1.64,-0.56 0.88,0 1.44,0.48 0.56,0.48 0.8,1.28 0.28,0.8 0.36,1.8 0.08,0.96 0.08,2.28 v 9.96 h 5.6 v -9.64 q 0,-1.16 0.04,-2.12 0.08,-0.96 0.36,-1.88 0.32,-0.96 0.92,-1.56 0.64,-0.6 1.68,-0.6 0.92,0 1.44,0.48 0.56,0.48 0.8,1.28 0.28,0.76 0.32,1.68 0.08,0.88 0.08,2.04 v 10.32 h 5.6 v -12.24 q 0,-1.72 -0.28,-3.12 -0.28,-1.44 -1,-2.56 -0.68,-1.12 -1.92,-1.72 -1.24,-0.64 -3.04,-0.64 -1.72,0 -3.28,0.84 -1.56,0.8 -2.44,2.24 -1.88,-3.08 -5.64,-3.08 -1.4,0 -2.72,0.64 -1.28,0.6 -2.08,1.76 h -0.08 z"
               style="font-style:normal;font-variant:normal;font-weight:normal;font-stretch:normal;font-family:Futura-Heavy;-inkscape-font-specification:Futura-Heavy;fill:#00ac00"
               id="path142" />
            <path
               d="m 104.71106,156.5077 v -0.68 q 0,-2.28 -0.56,-4.2 -0.56,-1.96 -1.72,-3.4 -1.12,-1.44 -2.920003,-2.24 -1.76,-0.84 -4.12,-0.84 -4.6,0 -7.08,3 -2.44,2.96 -2.44,7.64 0,4.56 2.64,7.44 2.68,2.84 7.16,2.84 3.12,0 5.520003,-1.6 2.4,-1.64 3.4,-4.52 l -5.160003,-0.84 q -0.6,1.24 -1.52,1.96 -0.92,0.72 -2.24,0.72 -1.04,0 -1.8,-0.44 -0.76,-0.48 -1.24,-1.24 -0.44,-0.76 -0.64,-1.68 -0.2,-0.92 -0.2,-1.92 z m -12.760003,-3.48 q 0.24,-1.68 1.2,-2.8 0.96,-1.16 2.56,-1.16 1.52,0 2.48,1.16 1,1.16 1.24,2.8 z"
               style="font-style:normal;font-variant:normal;font-weight:normal;font-stretch:normal;font-family:Futura-Heavy;-inkscape-font-specification:Futura-Heavy;fill:#00ac00"
               id="path144" />
            <path
               d="m 132.39104,165.4277 h 5.92 l -4.52,-30.96 h -4.24 l -7.12,19.88 -7.44,-19.88 h -4.16 l -5.08,30.96 h 5.92 l 2.68,-18.72 h 0.08 l 6.6,19.12 h 2.04 l 6.84,-19.12 h 0.08 z"
               style="font-style:normal;font-variant:normal;font-weight:normal;font-stretch:normal;font-family:Futura-Heavy;-inkscape-font-specification:Futura-Heavy;fill:#00ac00"
               id="path146" />
            <path
               d="m 159.31098,145.7877 h -5.52 v 1.84 q -1,-1.2 -2.48,-1.84 -1.44,-0.64 -3,-0.64 -2.04,0 -3.72,0.88 -1.68,0.84 -2.84,2.32 -1.16,1.48 -1.8,3.36 -0.6,1.84 -0.6,3.8 0,2 0.6,3.92 0.6,1.88 1.76,3.4 1.2,1.52 2.88,2.4 1.72,0.84 3.8,0.84 1.56,0 3,-0.64 1.44,-0.64 2.32,-1.8 h 0.08 v 1.8 h 5.52 z m -9.64,15.32 q -2.04,0 -3.36,-1.68 -1.28,-1.72 -1.28,-3.84 0,-2.12 1.28,-3.8 1.32,-1.68 3.36,-1.68 2.04,0 3.36,1.68 1.32,1.68 1.32,3.8 0,2.12 -1.32,3.84 -1.32,1.68 -3.36,1.68 z"
               style="font-style:normal;font-variant:normal;font-weight:normal;font-stretch:normal;font-family:Futura-Heavy;-inkscape-font-specification:Futura-Heavy;fill:#00ac00"
               id="path148" />
            <path
               d="m 168.95092,131.5077 h -5.6 v 33.92 h 5.6 v -8.36 h 0.08 l 6.44,8.36 h 7.36 l -8.92,-11 8.28,-8.64 h -7.28 l -5.88,7.2 h -0.08 z"
               style="font-style:normal;font-variant:normal;font-weight:normal;font-stretch:normal;font-family:Futura-Heavy;-inkscape-font-specification:Futura-Heavy;fill:#00ac00"
               id="path150" />
            <path
               d="m 201.83088,156.5077 v -0.68 q 0,-2.28 -0.56,-4.2 -0.56,-1.96 -1.72,-3.4 -1.12,-1.44 -2.92,-2.24 -1.76,-0.84 -4.12,-0.84 -4.6,0 -7.08,3 -2.44,2.96 -2.44,7.64 0,4.56 2.64,7.44 2.68,2.84 7.16,2.84 3.12,0 5.52,-1.6 2.4,-1.64 3.4,-4.52 l -5.16,-0.84 q -0.6,1.24 -1.52,1.96 -0.92,0.72 -2.24,0.72 -1.04,0 -1.8,-0.44 -0.76,-0.48 -1.24,-1.24 -0.44,-0.76 -0.64,-1.68 -0.2,-0.92 -0.2,-1.92 z m -12.76,-3.48 q 0.24,-1.68 1.2,-2.8 0.96,-1.16 2.56,-1.16 1.52,0 2.48,1.16 1,1.16 1.24,2.8 z"
               style="font-style:normal;font-variant:normal;font-weight:normal;font-stretch:normal;font-family:Futura-Heavy;-inkscape-font-specification:Futura-Heavy;fill:#00ac00"
               id="path152" />
            <path
               d="m 210.03086,145.7877 h -5.6 v 19.64 h 5.6 v -8.84 q 0,-1.36 0.12,-2.44 0.16,-1.12 0.6,-2.04 0.44,-0.92 1.32,-1.44 0.88,-0.56 2.24,-0.56 1.32,0 2.32,0.72 l 0.68,-5.2 q -1.24,-0.48 -2.32,-0.48 -3.12,0 -4.88,2.68 h -0.08 z"
               style="font-style:normal;font-variant:normal;font-weight:normal;font-stretch:normal;font-family:Futura-Heavy;-inkscape-font-specification:Futura-Heavy;fill:#00ac00"
               id="path154" />
            <path
               d="m 236.71079,135.2677 h -5.88 v 30.16 h 14.2 v -5.12 h -8.32 z"
               style="font-style:normal;font-variant:normal;font-weight:normal;font-stretch:normal;font-family:Futura-Heavy;-inkscape-font-specification:Futura-Heavy;fill:#00ac00"
               id="path156" />
            <path
               d="m 255.71073,145.1477 q -2.28,0 -4.2,0.76 -1.88,0.76 -3.28,2.2 -1.36,1.4 -2.12,3.32 -0.72,1.92 -0.72,4.2 0,2.28 0.72,4.2 0.76,1.88 2.12,3.32 1.4,1.4 3.28,2.16 1.92,0.76 4.2,0.76 2.28,0 4.2,-0.76 1.92,-0.76 3.28,-2.16 1.36,-1.44 2.08,-3.32 0.76,-1.92 0.76,-4.2 0,-2.28 -0.76,-4.2 -0.72,-1.92 -2.12,-3.32 -1.36,-1.44 -3.28,-2.2 -1.88,-0.76 -4.16,-0.76 z m 0,4.96 q 2.08,0 3.36,1.68 1.28,1.68 1.28,3.84 0,2.12 -1.32,3.8 -1.28,1.68 -3.32,1.68 -2.04,0 -3.36,-1.68 -1.28,-1.68 -1.28,-3.8 0,-2.16 1.28,-3.84 1.32,-1.68 3.36,-1.68 z"
               style="font-style:normal;font-variant:normal;font-weight:normal;font-stretch:normal;font-family:Futura-Heavy;-inkscape-font-specification:Futura-Heavy;fill:#00ac00"
               id="path158" />
            <path
               d="m 287.23065,145.7877 h -5.52 v 1.84 q -1,-1.2 -2.48,-1.84 -1.44,-0.64 -3,-0.64 -2.04,0 -3.72,0.88 -1.68,0.84 -2.84,2.32 -1.16,1.48 -1.8,3.36 -0.6,1.84 -0.6,3.8 0,2 0.6,3.92 0.6,1.88 1.76,3.4 1.2,1.52 2.88,2.4 1.72,0.84 3.8,0.84 1.56,0 3,-0.64 1.44,-0.64 2.32,-1.8 h 0.08 v 1.8 h 5.52 z m -9.64,15.32 q -2.04,0 -3.36,-1.68 -1.28,-1.72 -1.28,-3.84 0,-2.12 1.28,-3.8 1.32,-1.68 3.36,-1.68 2.04,0 3.36,1.68 1.32,1.68 1.32,3.8 0,2.12 -1.32,3.84 -1.32,1.68 -3.36,1.68 z"
               style="font-style:normal;font-variant:normal;font-weight:normal;font-stretch:normal;font-family:Futura-Heavy;-inkscape-font-specification:Futura-Heavy;fill:#00ac00"
               id="path160" />
            <path
               d="m 304.27063,165.4277 h 5.6 v -33.92 h -5.6 v 16.08 h -0.08 q -0.92,-1.16 -2.36,-1.8 -1.44,-0.64 -3,-0.64 -2.04,0 -3.72,0.88 -1.68,0.84 -2.84,2.32 -1.16,1.48 -1.8,3.36 -0.6,1.84 -0.6,3.8 0,2 0.6,3.92 0.6,1.88 1.76,3.4 1.2,1.52 2.88,2.4 1.72,0.84 3.8,0.84 1.56,0 3,-0.64 1.44,-0.68 2.28,-1.84 h 0.08 z m -4.08,-4.32 q -2.04,0 -3.36,-1.68 -1.28,-1.72 -1.28,-3.84 0,-2.12 1.28,-3.8 1.32,-1.68 3.36,-1.68 2.04,0 3.32,1.68 1.32,1.68 1.32,3.8 0,2.12 -1.32,3.84 -1.28,1.68 -3.32,1.68 z"
               style="font-style:normal;font-variant:normal;font-weight:normal;font-stretch:normal;font-family:Futura-Heavy;-inkscape-font-specification:Futura-Heavy;fill:#00ac00"
               id="path162" />
            <path
               d="m 331.31054,156.5077 v -0.68 q 0,-2.28 -0.56,-4.2 -0.56,-1.96 -1.72,-3.4 -1.12,-1.44 -2.92,-2.24 -1.76,-0.84 -4.12,-0.84 -4.6,0 -7.08,3 -2.44,2.96 -2.44,7.64 0,4.56 2.64,7.44 2.68,2.84 7.16,2.84 3.12,0 5.52,-1.6 2.4,-1.64 3.4,-4.52 l -5.16,-0.84 q -0.6,1.24 -1.52,1.96 -0.92,0.72 -2.24,0.72 -1.04,0 -1.8,-0.44 -0.76,-0.48 -1.24,-1.24 -0.44,-0.76 -0.64,-1.68 -0.2,-0.92 -0.2,-1.92 z m -12.76,-3.48 q 0.24,-1.68 1.2,-2.8 0.96,-1.16 2.56,-1.16 1.52,0 2.48,1.16 1,1.16 1.24,2.8 z"
               style="font-style:normal;font-variant:normal;font-weight:normal;font-stretch:normal;font-family:Futura-Heavy;-inkscape-font-specification:Futura-Heavy;fill:#00ac00"
               id="path164" />
            <path
               d="m 339.51052,145.7877 h -5.6 v 19.64 h 5.6 v -8.84 q 0,-1.36 0.12,-2.44 0.16,-1.12 0.6,-2.04 0.44,-0.92 1.32,-1.44 0.88,-0.56 2.24,-0.56 1.32,0 2.32,0.72 l 0.68,-5.2 q -1.24,-0.48 -2.32,-0.48 -3.12,0 -4.88,2.68 h -0.08 z"
               style="font-style:normal;font-variant:normal;font-weight:normal;font-stretch:normal;font-family:Futura-Heavy;-inkscape-font-specification:Futura-Heavy;fill:#00ac00"
               id="path166" />
          </g>
        </g>
      </g>
    </g>
    <flowRoot
       xml:space="preserve"
       id="flowRoot10"
       style="font-style:normal;font-weight:normal;font-size:40px;line-height:125%;font-family:sans-serif;letter-spacing:0px;word-spacing:0px;fill:#000000;fill-opacity:1;stroke:none;stroke-width:1px;stroke-linecap:butt;stroke-linejoin:miter;stroke-opacity:1"
       transform="matrix(0.26458333,0,0,0.26458333,0,244.08332)"><flowRegion
         id="flowRegion12"><rect
           id="rect14"
           width="180.26343"
           height="140.70921"
           x="18.804459"
           y="21.033434" /></flowRegion><flowPara
         id="flowPara16" /></flowRoot>  </g>
</svg>
